<svg preserveAspectRatio="none" width="100%" height="100%" overflow="visible" style="display: block;" viewBox="0 0 40 40" fill="none" xmlns="http://www.w3.org/2000/svg">
<circle cx="20" cy="20" r="20" fill="#ECCFA9"/>
<g transform="translate(-6 -26) scale(0.5)" fill="#FFFFFF">
<path d="M30 70c-2 0-4 2-4 4v10c0 6 4 11 9 12v18h8V96c5-1 9-6 9-12V74c0-2-2-4-4-4s-2 1-2 2v10h-3V72c0-1-1-2-2-2s-2 1-2 2v10h-3V72c0-1-1-2-2-2s-2 1-2 2v10h-2v-8c0-2-2-4-2-4z"/>
<path d="M70 70c-6 0-10 5-10 12v10c0 3 2 6 4 7l-2 15h12l-2-15c3-1 4-4 4-7V82c0-7-4-12-10-12z"/>
</g>
</svg>
