<svg preserveAspectRatio="none" width="100%" height="100%" overflow="visible" style="display: block;" viewBox="0 0 40 40" fill="none" xmlns="http://www.w3.org/2000/svg">
<g id="Group">
<path id="Vector" opacity="0.4" d="M20 40C31.0457 40 40 31.0457 40 20C40 8.9543 31.0457 0 20 0C8.9543 0 0 8.9543 0 20C0 31.0457 8.9543 40 20 40Z" fill="var(--fill-0, #FE9800)"/>
<path id="Vector_2" fill-rule="evenodd" clip-rule="evenodd" d="M25.985 15.985L26.518 21.535C26.5312 21.6737 26.5154 21.8136 26.4714 21.9457C26.4274 22.0779 26.3563 22.1994 26.2626 22.3025C26.1689 22.4056 26.0548 22.488 25.9274 22.5444C25.8 22.6008 25.6623 22.6299 25.523 22.63H14.476C14.3366 22.6299 14.1988 22.6008 14.0713 22.5443C13.9439 22.4878 13.8297 22.4054 13.736 22.3022C13.6423 22.199 13.5712 22.0773 13.5273 21.945C13.4834 21.8127 13.4676 21.6727 13.481 21.534L14.014 15.985" fill="var(--fill-0, #4E5968)"/>
<path id="Vector_3" fill-rule="evenodd" clip-rule="evenodd" d="M29 30V29.513C29 27.117 27.682 24.951 25.646 24.003L20 21.373L14.354 24.003C12.318 24.951 11 27.117 11 29.513V30C11 30.552 11.414 31 11.926 31H28.074C28.586 31 29 30.552 29 30Z" fill="var(--fill-0, #F46570)"/>
<path id="Vector_4" fill-rule="evenodd" clip-rule="evenodd" d="M20 9C16.372 9 14.015 11.941 14.015 15.569V16.809C14.015 20.437 16.372 23.377 20 23.377C23.628 23.377 25.985 20.437 25.985 16.809V15.569C25.985 11.941 23.628 9 20 9Z" fill="var(--fill-0, #FFD6BE)"/>
<path id="Vector_5" fill-rule="evenodd" clip-rule="evenodd" d="M20 9C16.017 9 14.015 11.778 14.015 15.206V15.985C16.221 15.985 20 12.991 20 12.991C20 12.991 23.779 15.985 25.985 15.985V15.206C25.985 11.778 23.983 9 20 9Z" fill="var(--fill-0, #4E5968)"/>
<path id="Vector_6" fill-rule="evenodd" clip-rule="evenodd" d="M22.792 17.519C22.792 17.6227 22.7716 17.7255 22.7319 17.8213C22.6922 17.9172 22.634 18.0043 22.5606 18.0776C22.4873 18.151 22.4002 18.2092 22.3043 18.2489C22.2085 18.2886 22.1057 18.309 22.002 18.309C21.8983 18.309 21.7955 18.2886 21.6997 18.2489C21.6038 18.2092 21.5167 18.151 21.4434 18.0776C21.37 18.0043 21.3118 17.9172 21.2721 17.8213C21.2324 17.7255 21.212 17.6227 21.212 17.519C21.212 17.3095 21.2952 17.1085 21.4434 16.9604C21.5915 16.8122 21.7925 16.729 22.002 16.729C22.2115 16.729 22.4125 16.8122 22.5606 16.9604C22.7088 17.1085 22.792 17.3095 22.792 17.519ZM17.209 17.519C17.209 17.7285 17.2922 17.9295 17.4404 18.0776C17.5885 18.2258 17.7895 18.309 17.999 18.309C18.2085 18.309 18.4095 18.2258 18.5576 18.0776C18.7058 17.9295 18.789 17.7285 18.789 17.519C18.789 17.3095 18.7058 17.1085 18.5576 16.9604C18.4095 16.8122 18.2085 16.729 17.999 16.729C17.7895 16.729 17.5885 16.8122 17.4404 16.9604C17.2922 17.1085 17.209 17.3095 17.209 17.519Z" fill="var(--fill-0, #333D4B)"/>
<path id="Vector_7" fill-rule="evenodd" clip-rule="evenodd" d="M27.142 17.56C27.071 18.368 26.439 18.973 25.73 18.911C25.02 18.849 24.502 18.143 24.574 17.335C24.644 16.528 25.276 15.923 25.986 15.985C26.695 16.047 27.212 16.752 27.142 17.56ZM12.858 17.56C12.929 18.368 13.561 18.973 14.27 18.911C14.98 18.849 15.498 18.143 15.426 17.335C15.356 16.528 14.724 15.923 14.014 15.985C13.305 16.047 12.788 16.752 12.858 17.56Z" fill="var(--fill-0, #FFD6BE)"/>
</g>
</svg>
